<?xml version="1.0" encoding="UTF-8" standalone="no"?>
<!DOCTYPE svg PUBLIC "-//W3C//DTD SVG 1.1//EN"
 "http://www.w3.org/Graphics/SVG/1.1/DTD/svg11.dtd">
<!-- Generated by graphviz version 2.43.0 (0)
 -->
<!-- Title: src/libs/ribben/ribbensettings.h Pages: 1 -->
<svg width="373pt" height="82pt"
 viewBox="0.00 0.00 372.50 82.00" xmlns="http://www.w3.org/2000/svg" xmlns:xlink="http://www.w3.org/1999/xlink">
<g id="graph0" class="graph" transform="scale(1 1) rotate(0) translate(4 78)">
<title>src/libs/ribben/ribbensettings.h</title>
<!-- Node1 -->
<g id="node1" class="node">
<title>Node1</title>
<g id="a_node1"><a xlink:title=" ">
<polygon fill="#999999" stroke="#666666" points="263,-74 96,-74 96,-55 263,-55 263,-74"/>
<text text-anchor="middle" x="179.5" y="-62" font-family="Helvetica,sans-Serif" font-size="10.00">src/libs/ribben/ribbensettings.h</text>
</a>
</g>
</g>
<!-- Node2 -->
<g id="node2" class="node">
<title>Node2</title>
<g id="a_node2"><a xlink:href="../../d3/ddb/ribbenserver_8cpp.html" target="_top" xlink:title=" ">
<polygon fill="white" stroke="#666666" points="169,-19 0,-19 0,0 169,0 169,-19"/>
<text text-anchor="middle" x="84.5" y="-7" font-family="Helvetica,sans-Serif" font-size="10.00">src/libs/ribben/ribbenserver.cpp</text>
</a>
</g>
</g>
<!-- Node1&#45;&gt;Node2 -->
<g id="edge1" class="edge">
<title>Node1&#45;&gt;Node2</title>
<path fill="none" stroke="#63b8ff" d="M155.24,-49.97C137.87,-40.28 115.01,-27.52 100.04,-19.17"/>
<polygon fill="#63b8ff" stroke="#63b8ff" points="153.8,-53.17 164.24,-54.98 157.21,-47.06 153.8,-53.17"/>
</g>
<!-- Node3 -->
<g id="node3" class="node">
<title>Node3</title>
<g id="a_node3"><a xlink:href="../../de/d18/ribbensettings_8cpp.html" target="_top" xlink:title=" ">
<polygon fill="white" stroke="#666666" points="364.5,-19 186.5,-19 186.5,0 364.5,0 364.5,-19"/>
<text text-anchor="middle" x="275.5" y="-7" font-family="Helvetica,sans-Serif" font-size="10.00">src/libs/ribben/ribbensettings.cpp</text>
</a>
</g>
</g>
<!-- Node1&#45;&gt;Node3 -->
<g id="edge2" class="edge">
<title>Node1&#45;&gt;Node3</title>
<path fill="none" stroke="#63b8ff" d="M204.02,-49.97C221.56,-40.28 244.67,-27.52 259.8,-19.17"/>
<polygon fill="#63b8ff" stroke="#63b8ff" points="201.99,-47.09 194.92,-54.98 205.37,-53.22 201.99,-47.09"/>
</g>
</g>
</svg>
