<?xml version="1.0" encoding="UTF-8" standalone="no"?>
<!DOCTYPE svg PUBLIC "-//W3C//DTD SVG 1.1//EN"
 "http://www.w3.org/Graphics/SVG/1.1/DTD/svg11.dtd">
<!-- Generated by graphviz version 2.43.0 (0)
 -->
<!-- Title: src/app/seamly2d/dialogs/layoutsettings_dialog.h Pages: 1 -->
<!--zoomable 236 -->
<svg id="main" version="1.1" xmlns="http://www.w3.org/2000/svg" xmlns:xlink="http://www.w3.org/1999/xlink" xml:space="preserve" onload="init(evt)">
<style type="text/css"><![CDATA[
.edge:hover path { stroke: red; }
.edge:hover polygon { stroke: red; fill: red; }
]]></style>
<script type="text/javascript"><![CDATA[
var edges = document.getElementsByTagName('g');
if (edges && edges.length) {
  for (var i=0;i<edges.length;i++) {
    if (edges[i].id.substr(0,4)=='edge') {
      edges[i].setAttribute('class','edge');
    }
  }
}
]]></script>
        <defs>
                <circle id="rim" cx="0" cy="0" r="7"/>
                <circle id="rim2" cx="0" cy="0" r="3.5"/>
                <g id="zoomPlus">
                        <use xlink:href="#rim" fill="#404040">
                                <set attributeName="fill" to="#808080" begin="zoomplus.mouseover" end="zoomplus.mouseout"/>
                        </use>
                        <path d="M-4,0h8M0,-4v8" fill="none" stroke="white" stroke-width="1.5" pointer-events="none"/>
                </g>
                <g id="zoomMin">
                        <use xlink:href="#rim" fill="#404040">
                                <set attributeName="fill" to="#808080" begin="zoomminus.mouseover" end="zoomminus.mouseout"/>
                        </use>
                        <path d="M-4,0h8" fill="none" stroke="white" stroke-width="1.5" pointer-events="none"/>
                </g>
                <g id="dirArrow">
                        <path fill="none" stroke="white" stroke-width="1.5" d="M0,-3.0v7 M-2.5,-0.5L0,-3.0L2.5,-0.5"/>
                </g>
               <g id="resetDef">
                       <use xlink:href="#rim2" fill="#404040">
                               <set attributeName="fill" to="#808080" begin="reset.mouseover" end="reset.mouseout"/>
                       </use>
               </g>
        </defs>

<script type="text/javascript">
var viewWidth = 4645;
var viewHeight = 236;
var sectionId = 'dynsection-1';
</script>
<script xlink:href="../../svgpan.js"/>
<svg id="graph" class="graph">
<g id="viewport">
<title>src/app/seamly2d/dialogs/layoutsettings_dialog.h</title>
<!-- Node1 -->
<g id="node1" class="node">
<title>Node1</title>
<g id="a_node1"><a xlink:title=" ">
<polygon fill="#999999" stroke="#666666" points="2169.5,-228 2028.5,-228 2028.5,-198 2169.5,-198 2169.5,-228"/>
<text text-anchor="start" x="2036.5" y="-216" font-family="Helvetica,sans-Serif" font-size="10.00">src/app/seamly2d/dialogs</text>
<text text-anchor="middle" x="2099" y="-205" font-family="Helvetica,sans-Serif" font-size="10.00">/layoutsettings_dialog.h</text>
</a>
</g>
</g>
<!-- Node2 -->
<g id="node2" class="node">
<title>Node2</title>
<g id="a_node2"><a xlink:href="../../df/d9b/vcmdexport_8cpp.html" target="_top" xlink:title=" ">
<polygon fill="white" stroke="#666666" points="492.5,-96 365.5,-96 365.5,-66 492.5,-66 492.5,-96"/>
<text text-anchor="start" x="373.5" y="-84" font-family="Helvetica,sans-Serif" font-size="10.00">src/app/seamly2d/core</text>
<text text-anchor="middle" x="429" y="-73" font-family="Helvetica,sans-Serif" font-size="10.00">/vcmdexport.cpp</text>
</a>
</g>
</g>
<!-- Node1&#45;&gt;Node2 -->
<g id="edge1" class="edge">
<title>Node1&#45;&gt;Node2</title>
<path fill="none" stroke="#63b8ff" d="M2018.03,-209.9C1782.79,-202.97 1079.51,-176.54 502,-96 498.93,-95.57 495.8,-95.1 492.64,-94.6"/>
<polygon fill="#63b8ff" stroke="#63b8ff" points="2018.11,-213.4 2028.21,-210.19 2018.31,-206.4 2018.11,-213.4"/>
</g>
<!-- Node3 -->
<g id="node3" class="node">
<title>Node3</title>
<g id="a_node3"><a xlink:href="../../dd/d57/vcmdexport_8h.html" target="_top" xlink:title=" ">
<polygon fill="white" stroke="#666666" points="1389.5,-162 1262.5,-162 1262.5,-132 1389.5,-132 1389.5,-162"/>
<text text-anchor="start" x="1270.5" y="-150" font-family="Helvetica,sans-Serif" font-size="10.00">src/app/seamly2d/core</text>
<text text-anchor="middle" x="1326" y="-139" font-family="Helvetica,sans-Serif" font-size="10.00">/vcmdexport.h</text>
</a>
</g>
</g>
<!-- Node1&#45;&gt;Node3 -->
<g id="edge2" class="edge">
<title>Node1&#45;&gt;Node3</title>
<path fill="none" stroke="#63b8ff" d="M2017.99,-205.29C1863.45,-192.5 1529.51,-164.85 1389.65,-153.27"/>
<polygon fill="#63b8ff" stroke="#63b8ff" points="2018.1,-208.81 2028.35,-206.15 2018.68,-201.84 2018.1,-208.81"/>
</g>
<!-- Node21 -->
<g id="node21" class="node">
<title>Node21</title>
<g id="a_node21"><a xlink:href="../../d0/dfa/layoutsettings__dialog_8cpp.html" target="_top" xlink:title=" ">
<polygon fill="white" stroke="#666666" points="4397.5,-30 4252.5,-30 4252.5,0 4397.5,0 4397.5,-30"/>
<text text-anchor="start" x="4260.5" y="-18" font-family="Helvetica,sans-Serif" font-size="10.00">src/app/seamly2d/dialogs</text>
<text text-anchor="middle" x="4325" y="-7" font-family="Helvetica,sans-Serif" font-size="10.00">/layoutsettings_dialog.cpp</text>
</a>
</g>
</g>
<!-- Node1&#45;&gt;Node21 -->
<g id="edge35" class="edge">
<title>Node1&#45;&gt;Node21</title>
<path fill="none" stroke="#63b8ff" d="M2179.76,-207.61C2463.58,-191.66 3441.39,-132.27 4243,-30 4246.01,-29.62 4249.08,-29.2 4252.17,-28.76"/>
<polygon fill="#63b8ff" stroke="#63b8ff" points="2179.35,-204.13 2169.56,-208.18 2179.74,-211.12 2179.35,-204.13"/>
</g>
<!-- Node27 -->
<g id="node27" class="node">
<title>Node27</title>
<g id="a_node27"><a xlink:href="../../d8/de8/mainwindowsnogui_8cpp.html" target="_top" xlink:title=" ">
<polygon fill="white" stroke="#666666" points="4636.5,-24.5 4415.5,-24.5 4415.5,-5.5 4636.5,-5.5 4636.5,-24.5"/>
<text text-anchor="middle" x="4526" y="-12.5" font-family="Helvetica,sans-Serif" font-size="10.00">src/app/seamly2d/mainwindowsnogui.cpp</text>
</a>
</g>
</g>
<!-- Node1&#45;&gt;Node27 -->
<g id="edge36" class="edge">
<title>Node1&#45;&gt;Node27</title>
<path fill="none" stroke="#63b8ff" d="M2179.93,-208.98C2347.59,-202.47 2745.04,-185.77 3078,-162 3398.08,-139.14 3477.69,-127.93 3797,-96 4068.34,-68.87 4136.03,-60.6 4407,-30 4422.4,-28.26 4438.91,-26.35 4454.59,-24.51"/>
<polygon fill="#63b8ff" stroke="#63b8ff" points="2179.56,-205.49 2169.7,-209.37 2179.83,-212.48 2179.56,-205.49"/>
</g>
<!-- Node3&#45;&gt;Node2 -->
<g id="edge29" class="edge">
<title>Node3&#45;&gt;Node2</title>
<path fill="none" stroke="#63b8ff" d="M1252.05,-136.38C1237.79,-134.74 1222.94,-133.19 1209,-132 895.51,-105.29 814.36,-133.72 502,-96 498.93,-95.63 495.79,-95.2 492.62,-94.74"/>
<polygon fill="#63b8ff" stroke="#63b8ff" points="1251.98,-139.89 1262.32,-137.58 1252.8,-132.94 1251.98,-139.89"/>
</g>
<!-- Node4 -->
<g id="node4" class="node">
<title>Node4</title>
<g id="a_node4"><a xlink:href="../../d7/d61/application__2d_8h.html" target="_top" xlink:title=" ">
<polygon fill="white" stroke="#666666" points="2195.5,-96 2068.5,-96 2068.5,-66 2195.5,-66 2195.5,-96"/>
<text text-anchor="start" x="2076.5" y="-84" font-family="Helvetica,sans-Serif" font-size="10.00">src/app/seamly2d/core</text>
<text text-anchor="middle" x="2132" y="-73" font-family="Helvetica,sans-Serif" font-size="10.00">/application_2d.h</text>
</a>
</g>
</g>
<!-- Node3&#45;&gt;Node4 -->
<g id="edge3" class="edge">
<title>Node3&#45;&gt;Node4</title>
<path fill="none" stroke="#63b8ff" d="M1399.6,-140.16C1556.33,-127.71 1920.75,-98.77 2068.28,-87.06"/>
<polygon fill="#63b8ff" stroke="#63b8ff" points="1399.27,-136.67 1389.58,-140.95 1399.83,-143.65 1399.27,-136.67"/>
</g>
<!-- Node30 -->
<g id="node30" class="node">
<title>Node30</title>
<g id="a_node30"><a xlink:href="../../d9/d53/mainwindow_8h.html" target="_top" xlink:title=" ">
<polygon fill="white" stroke="#666666" points="687,-90.5 511,-90.5 511,-71.5 687,-71.5 687,-90.5"/>
<text text-anchor="middle" x="599" y="-78.5" font-family="Helvetica,sans-Serif" font-size="10.00">src/app/seamly2d/mainwindow.h</text>
</a>
</g>
</g>
<!-- Node3&#45;&gt;Node30 -->
<g id="edge30" class="edge">
<title>Node3&#45;&gt;Node30</title>
<path fill="none" stroke="#63b8ff" d="M1252.02,-136.72C1237.76,-135.06 1222.92,-133.4 1209,-132 1023.59,-113.31 805.94,-96.77 687.23,-88.19"/>
<polygon fill="#63b8ff" stroke="#63b8ff" points="1251.95,-140.24 1262.29,-137.94 1252.77,-133.29 1251.95,-140.24"/>
</g>
<!-- Node5 -->
<g id="node5" class="node">
<title>Node5</title>
<g id="a_node5"><a xlink:href="../../df/d3e/application__2d_8cpp.html" target="_top" xlink:title=" ">
<polygon fill="white" stroke="#666666" points="505.5,-30 378.5,-30 378.5,0 505.5,0 505.5,-30"/>
<text text-anchor="start" x="386.5" y="-18" font-family="Helvetica,sans-Serif" font-size="10.00">src/app/seamly2d/core</text>
<text text-anchor="middle" x="442" y="-7" font-family="Helvetica,sans-Serif" font-size="10.00">/application_2d.cpp</text>
</a>
</g>
</g>
<!-- Node4&#45;&gt;Node5 -->
<g id="edge4" class="edge">
<title>Node4&#45;&gt;Node5</title>
<path fill="none" stroke="#63b8ff" d="M2057.9,-79.3C1782.66,-76.44 819.22,-64.16 514,-30 511.22,-29.69 508.38,-29.33 505.52,-28.93"/>
<polygon fill="#63b8ff" stroke="#63b8ff" points="2058.14,-82.8 2068.18,-79.4 2058.21,-75.8 2058.14,-82.8"/>
</g>
<!-- Node6 -->
<g id="node6" class="node">
<title>Node6</title>
<g id="a_node6"><a xlink:href="../../d2/d00/vtooloptionspropertybrowser_8cpp.html" target="_top" xlink:title=" ">
<polygon fill="white" stroke="#666666" points="2759,-30 2579,-30 2579,0 2759,0 2759,-30"/>
<text text-anchor="start" x="2587" y="-18" font-family="Helvetica,sans-Serif" font-size="10.00">src/app/seamly2d/core</text>
<text text-anchor="middle" x="2669" y="-7" font-family="Helvetica,sans-Serif" font-size="10.00">/vtooloptionspropertybrowser.cpp</text>
</a>
</g>
</g>
<!-- Node4&#45;&gt;Node6 -->
<g id="edge5" class="edge">
<title>Node4&#45;&gt;Node6</title>
<path fill="none" stroke="#63b8ff" d="M2205.78,-72.13C2292.71,-62.73 2441.48,-46.22 2569,-30 2572.22,-29.59 2575.49,-29.17 2578.8,-28.73"/>
<polygon fill="#63b8ff" stroke="#63b8ff" points="2205.31,-68.66 2195.75,-73.21 2206.07,-75.62 2205.31,-68.66"/>
</g>
<!-- Node7 -->
<g id="node7" class="node">
<title>Node7</title>
<g id="a_node7"><a xlink:href="../../d9/d7f/about2d__dialog_8cpp.html" target="_top" xlink:title=" ">
<polygon fill="white" stroke="#666666" points="2918.5,-30 2777.5,-30 2777.5,0 2918.5,0 2918.5,-30"/>
<text text-anchor="start" x="2785.5" y="-18" font-family="Helvetica,sans-Serif" font-size="10.00">src/app/seamly2d/dialogs</text>
<text text-anchor="middle" x="2848" y="-7" font-family="Helvetica,sans-Serif" font-size="10.00">/about2d_dialog.cpp</text>
</a>
</g>
</g>
<!-- Node4&#45;&gt;Node7 -->
<g id="edge6" class="edge">
<title>Node4&#45;&gt;Node7</title>
<path fill="none" stroke="#63b8ff" d="M2205.92,-76.47C2324.73,-70.28 2565.4,-55.63 2768,-30 2771.08,-29.61 2774.22,-29.18 2777.38,-28.73"/>
<polygon fill="#63b8ff" stroke="#63b8ff" points="2205.65,-72.98 2195.85,-76.99 2206.01,-79.97 2205.65,-72.98"/>
</g>
<!-- Node8 -->
<g id="node8" class="node">
<title>Node8</title>
<g id="a_node8"><a xlink:href="../../dd/db4/abstractlayout__dialog_8cpp.html" target="_top" xlink:title=" ">
<polygon fill="white" stroke="#666666" points="3083,-30 2937,-30 2937,0 3083,0 3083,-30"/>
<text text-anchor="start" x="2945" y="-18" font-family="Helvetica,sans-Serif" font-size="10.00">src/app/seamly2d/dialogs</text>
<text text-anchor="middle" x="3010" y="-7" font-family="Helvetica,sans-Serif" font-size="10.00">/abstractlayout_dialog.cpp</text>
</a>
</g>
</g>
<!-- Node4&#45;&gt;Node8 -->
<g id="edge7" class="edge">
<title>Node4&#45;&gt;Node8</title>
<path fill="none" stroke="#63b8ff" d="M2205.81,-77.93C2346.5,-73.41 2662.63,-60.53 2927,-30 2930.19,-29.63 2933.45,-29.22 2936.74,-28.78"/>
<polygon fill="#63b8ff" stroke="#63b8ff" points="2205.46,-74.44 2195.58,-78.25 2205.68,-81.43 2205.46,-74.44"/>
</g>
<!-- Node9 -->
<g id="node9" class="node">
<title>Node9</title>
<g id="a_node9"><a xlink:href="../../d7/dfa/calculator__dialog_8cpp.html" target="_top" xlink:title=" ">
<polygon fill="white" stroke="#666666" points="3242.5,-30 3101.5,-30 3101.5,0 3242.5,0 3242.5,-30"/>
<text text-anchor="start" x="3109.5" y="-18" font-family="Helvetica,sans-Serif" font-size="10.00">src/app/seamly2d/dialogs</text>
<text text-anchor="middle" x="3172" y="-7" font-family="Helvetica,sans-Serif" font-size="10.00">/calculator_dialog.cpp</text>
</a>
</g>
</g>
<!-- Node4&#45;&gt;Node9 -->
<g id="edge8" class="edge">
<title>Node4&#45;&gt;Node9</title>
<path fill="none" stroke="#63b8ff" d="M2205.98,-79.2C2367.37,-76.78 2762.99,-67.22 3092,-30 3095.08,-29.65 3098.23,-29.26 3101.4,-28.83"/>
<polygon fill="#63b8ff" stroke="#63b8ff" points="2205.63,-75.7 2195.69,-79.35 2205.74,-82.7 2205.63,-75.7"/>
</g>
<!-- Node10 -->
<g id="node10" class="node">
<title>Node10</title>
<g id="a_node10"><a xlink:href="../../d2/d2d/preferencesconfigurationpage_8cpp.html" target="_top" xlink:title=" ">
<polygon fill="white" stroke="#666666" points="3507.5,-30 3260.5,-30 3260.5,0 3507.5,0 3507.5,-30"/>
<text text-anchor="start" x="3268.5" y="-18" font-family="Helvetica,sans-Serif" font-size="10.00">src/app/seamly2d/dialogs</text>
<text text-anchor="middle" x="3384" y="-7" font-family="Helvetica,sans-Serif" font-size="10.00">/configpages/preferencesconfigurationpage.cpp</text>
</a>
</g>
</g>
<!-- Node4&#45;&gt;Node10 -->
<g id="edge9" class="edge">
<title>Node4&#45;&gt;Node10</title>
<path fill="none" stroke="#63b8ff" d="M2205.9,-78.24C2385.25,-73.62 2857.7,-59.46 3251,-30 3254.13,-29.77 3257.29,-29.52 3260.48,-29.26"/>
<polygon fill="#63b8ff" stroke="#63b8ff" points="2205.7,-74.74 2195.79,-78.49 2205.88,-81.74 2205.7,-74.74"/>
</g>
<!-- Node11 -->
<g id="node11" class="node">
<title>Node11</title>
<g id="a_node11"><a xlink:href="../../d9/d70/preferencesgraphicsviewpage_8cpp.html" target="_top" xlink:title=" ">
<polygon fill="white" stroke="#666666" points="3774,-30 3526,-30 3526,0 3774,0 3774,-30"/>
<text text-anchor="start" x="3534" y="-18" font-family="Helvetica,sans-Serif" font-size="10.00">src/app/seamly2d/dialogs</text>
<text text-anchor="middle" x="3650" y="-7" font-family="Helvetica,sans-Serif" font-size="10.00">/configpages/preferencesgraphicsviewpage.cpp</text>
</a>
</g>
</g>
<!-- Node4&#45;&gt;Node11 -->
<g id="edge10" class="edge">
<title>Node4&#45;&gt;Node11</title>
<path fill="none" stroke="#63b8ff" d="M2205.67,-79.1C2412.48,-76.2 3015.97,-65.11 3516,-30 3519.27,-29.77 3522.58,-29.52 3525.92,-29.26"/>
<polygon fill="#63b8ff" stroke="#63b8ff" points="2205.49,-75.6 2195.54,-79.24 2205.59,-82.6 2205.49,-75.6"/>
</g>
<!-- Node12 -->
<g id="node12" class="node">
<title>Node12</title>
<g id="a_node12"><a xlink:href="../../dc/d20/preferencespathpage_8cpp.html" target="_top" xlink:title=" ">
<polygon fill="white" stroke="#666666" points="3997.5,-30 3792.5,-30 3792.5,0 3997.5,0 3997.5,-30"/>
<text text-anchor="start" x="3800.5" y="-18" font-family="Helvetica,sans-Serif" font-size="10.00">src/app/seamly2d/dialogs</text>
<text text-anchor="middle" x="3895" y="-7" font-family="Helvetica,sans-Serif" font-size="10.00">/configpages/preferencespathpage.cpp</text>
</a>
</g>
</g>
<!-- Node4&#45;&gt;Node12 -->
<g id="edge11" class="edge">
<title>Node4&#45;&gt;Node12</title>
<path fill="none" stroke="#63b8ff" d="M2205.89,-80.24C2438.32,-80.45 3175.19,-77.09 3783,-30 3786.03,-29.77 3789.1,-29.51 3792.2,-29.23"/>
<polygon fill="#63b8ff" stroke="#63b8ff" points="2205.86,-76.74 2195.86,-80.22 2205.86,-83.74 2205.86,-76.74"/>
</g>
<!-- Node13 -->
<g id="node13" class="node">
<title>Node13</title>
<g id="a_node13"><a xlink:href="../../dc/d63/preferencespatternpage_8cpp.html" target="_top" xlink:title=" ">
<polygon fill="white" stroke="#666666" points="4234,-30 4016,-30 4016,0 4234,0 4234,-30"/>
<text text-anchor="start" x="4024" y="-18" font-family="Helvetica,sans-Serif" font-size="10.00">src/app/seamly2d/dialogs</text>
<text text-anchor="middle" x="4125" y="-7" font-family="Helvetica,sans-Serif" font-size="10.00">/configpages/preferencespatternpage.cpp</text>
</a>
</g>
</g>
<!-- Node4&#45;&gt;Node13 -->
<g id="edge12" class="edge">
<title>Node4&#45;&gt;Node13</title>
<path fill="none" stroke="#63b8ff" d="M2205.73,-80.43C2457.57,-81.37 3306.8,-80.35 4006,-30 4009.22,-29.77 4012.48,-29.51 4015.77,-29.24"/>
<polygon fill="#63b8ff" stroke="#63b8ff" points="2205.62,-76.93 2195.6,-80.39 2205.59,-83.93 2205.62,-76.93"/>
</g>
<!-- Node14 -->
<g id="node14" class="node">
<title>Node14</title>
<g id="a_node14"><a xlink:href="../../dd/dc2/decimalchart__dialog_8cpp.html" target="_top" xlink:title=" ">
<polygon fill="white" stroke="#666666" points="833.5,-30 692.5,-30 692.5,0 833.5,0 833.5,-30"/>
<text text-anchor="start" x="700.5" y="-18" font-family="Helvetica,sans-Serif" font-size="10.00">src/app/seamly2d/dialogs</text>
<text text-anchor="middle" x="763" y="-7" font-family="Helvetica,sans-Serif" font-size="10.00">/decimalchart_dialog.cpp</text>
</a>
</g>
</g>
<!-- Node4&#45;&gt;Node14 -->
<g id="edge13" class="edge">
<title>Node4&#45;&gt;Node14</title>
<path fill="none" stroke="#63b8ff" d="M2058.08,-80.66C1860.28,-81.66 1302.57,-79.5 842,-30 839.23,-29.7 836.41,-29.37 833.57,-29"/>
<polygon fill="#63b8ff" stroke="#63b8ff" points="2058.37,-84.16 2068.35,-80.6 2058.33,-77.16 2058.37,-84.16"/>
</g>
<!-- Node15 -->
<g id="node15" class="node">
<title>Node15</title>
<g id="a_node15"><a xlink:href="../../d6/d89/dialoglayoutprogress_8cpp.html" target="_top" xlink:title=" ">
<polygon fill="white" stroke="#666666" points="994.5,-30 851.5,-30 851.5,0 994.5,0 994.5,-30"/>
<text text-anchor="start" x="859.5" y="-18" font-family="Helvetica,sans-Serif" font-size="10.00">src/app/seamly2d/dialogs</text>
<text text-anchor="middle" x="923" y="-7" font-family="Helvetica,sans-Serif" font-size="10.00">/dialoglayoutprogress.cpp</text>
</a>
</g>
</g>
<!-- Node4&#45;&gt;Node15 -->
<g id="edge14" class="edge">
<title>Node4&#45;&gt;Node15</title>
<path fill="none" stroke="#63b8ff" d="M2058.26,-80.02C1877.71,-79.35 1399.28,-73.27 1003,-30 1000.34,-29.71 997.63,-29.38 994.9,-29.03"/>
<polygon fill="#63b8ff" stroke="#63b8ff" points="2058.42,-83.52 2068.43,-80.05 2058.44,-76.52 2058.42,-83.52"/>
</g>
<!-- Node16 -->
<g id="node16" class="node">
<title>Node16</title>
<g id="a_node16"><a xlink:href="../../de/d87/dialognewpattern_8cpp.html" target="_top" xlink:title=" ">
<polygon fill="white" stroke="#666666" points="1153.5,-30 1012.5,-30 1012.5,0 1153.5,0 1153.5,-30"/>
<text text-anchor="start" x="1020.5" y="-18" font-family="Helvetica,sans-Serif" font-size="10.00">src/app/seamly2d/dialogs</text>
<text text-anchor="middle" x="1083" y="-7" font-family="Helvetica,sans-Serif" font-size="10.00">/dialognewpattern.cpp</text>
</a>
</g>
</g>
<!-- Node4&#45;&gt;Node16 -->
<g id="edge15" class="edge">
<title>Node4&#45;&gt;Node16</title>
<path fill="none" stroke="#63b8ff" d="M2057.85,-79.31C1895.15,-77.1 1494.8,-67.92 1162,-30 1159.23,-29.68 1156.41,-29.33 1153.57,-28.95"/>
<polygon fill="#63b8ff" stroke="#63b8ff" points="2058.18,-82.81 2068.22,-79.44 2058.27,-75.81 2058.18,-82.81"/>
</g>
<!-- Node17 -->
<g id="node17" class="node">
<title>Node17</title>
<g id="a_node17"><a xlink:href="../../d5/d18/dialogpatternproperties_8cpp.html" target="_top" xlink:title=" ">
<polygon fill="white" stroke="#666666" points="1326.5,-30 1171.5,-30 1171.5,0 1326.5,0 1326.5,-30"/>
<text text-anchor="start" x="1179.5" y="-18" font-family="Helvetica,sans-Serif" font-size="10.00">src/app/seamly2d/dialogs</text>
<text text-anchor="middle" x="1249" y="-7" font-family="Helvetica,sans-Serif" font-size="10.00">/dialogpatternproperties.cpp</text>
</a>
</g>
</g>
<!-- Node4&#45;&gt;Node17 -->
<g id="edge16" class="edge">
<title>Node4&#45;&gt;Node17</title>
<path fill="none" stroke="#63b8ff" d="M2058.02,-77.8C1917,-73.06 1600.12,-59.82 1335,-30 1332.29,-29.7 1329.54,-29.36 1326.77,-29.01"/>
<polygon fill="#63b8ff" stroke="#63b8ff" points="2058.17,-81.31 2068.28,-78.14 2058.4,-74.31 2058.17,-81.31"/>
</g>
<!-- Node18 -->
<g id="node18" class="node">
<title>Node18</title>
<g id="a_node18"><a xlink:href="../../d5/dc5/dialogpreferences_8cpp.html" target="_top" xlink:title=" ">
<polygon fill="white" stroke="#666666" points="1485.5,-30 1344.5,-30 1344.5,0 1485.5,0 1485.5,-30"/>
<text text-anchor="start" x="1352.5" y="-18" font-family="Helvetica,sans-Serif" font-size="10.00">src/app/seamly2d/dialogs</text>
<text text-anchor="middle" x="1415" y="-7" font-family="Helvetica,sans-Serif" font-size="10.00">/dialogpreferences.cpp</text>
</a>
</g>
</g>
<!-- Node4&#45;&gt;Node18 -->
<g id="edge17" class="edge">
<title>Node4&#45;&gt;Node18</title>
<path fill="none" stroke="#63b8ff" d="M2058.31,-76.56C1939.28,-70.47 1697.47,-55.94 1494,-30 1491.24,-29.65 1488.42,-29.26 1485.58,-28.86"/>
<polygon fill="#63b8ff" stroke="#63b8ff" points="2058.24,-80.06 2068.4,-77.07 2058.59,-73.07 2058.24,-80.06"/>
</g>
<!-- Node19 -->
<g id="node19" class="node">
<title>Node19</title>
<g id="a_node19"><a xlink:href="../../dd/d54/export__layout__dialog_8cpp.html" target="_top" xlink:title=" ">
<polygon fill="white" stroke="#666666" points="1646.5,-30 1503.5,-30 1503.5,0 1646.5,0 1646.5,-30"/>
<text text-anchor="start" x="1511.5" y="-18" font-family="Helvetica,sans-Serif" font-size="10.00">src/app/seamly2d/dialogs</text>
<text text-anchor="middle" x="1575" y="-7" font-family="Helvetica,sans-Serif" font-size="10.00">/export_layout_dialog.cpp</text>
</a>
</g>
</g>
<!-- Node4&#45;&gt;Node19 -->
<g id="edge18" class="edge">
<title>Node4&#45;&gt;Node19</title>
<path fill="none" stroke="#63b8ff" d="M2058.21,-73.85C1964.31,-65.66 1797.22,-49.87 1655,-30 1652.35,-29.63 1649.65,-29.24 1646.92,-28.83"/>
<polygon fill="#63b8ff" stroke="#63b8ff" points="2057.91,-77.34 2068.18,-74.72 2058.52,-70.37 2057.91,-77.34"/>
</g>
<!-- Node20 -->
<g id="node20" class="node">
<title>Node20</title>
<g id="a_node20"><a xlink:href="../../db/d5c/groups__widget_8cpp.html" target="_top" xlink:title=" ">
<polygon fill="white" stroke="#666666" points="1805.5,-30 1664.5,-30 1664.5,0 1805.5,0 1805.5,-30"/>
<text text-anchor="start" x="1672.5" y="-18" font-family="Helvetica,sans-Serif" font-size="10.00">src/app/seamly2d/dialogs</text>
<text text-anchor="middle" x="1735" y="-7" font-family="Helvetica,sans-Serif" font-size="10.00">/groups_widget.cpp</text>
</a>
</g>
</g>
<!-- Node4&#45;&gt;Node20 -->
<g id="edge19" class="edge">
<title>Node4&#45;&gt;Node20</title>
<path fill="none" stroke="#63b8ff" d="M2058.22,-68.81C1993.72,-58.94 1897.58,-43.98 1814,-30 1811.25,-29.54 1808.45,-29.07 1805.62,-28.59"/>
<polygon fill="#63b8ff" stroke="#63b8ff" points="2057.87,-72.3 2068.29,-70.35 2058.93,-65.38 2057.87,-72.3"/>
</g>
<!-- Node4&#45;&gt;Node21 -->
<g id="edge20" class="edge">
<title>Node4&#45;&gt;Node21</title>
<path fill="none" stroke="#63b8ff" d="M2205.59,-78.89C2554.88,-73.55 4037.21,-49.9 4243,-30 4246.02,-29.71 4249.09,-29.37 4252.2,-28.99"/>
<polygon fill="#63b8ff" stroke="#63b8ff" points="2205.53,-75.39 2195.58,-79.05 2205.64,-82.39 2205.53,-75.39"/>
</g>
<!-- Node22 -->
<g id="node22" class="node">
<title>Node22</title>
<g id="a_node22"><a xlink:href="../../dd/d84/shortcuts__dialog_8cpp.html" target="_top" xlink:title=" ">
<polygon fill="white" stroke="#666666" points="1964.5,-30 1823.5,-30 1823.5,0 1964.5,0 1964.5,-30"/>
<text text-anchor="start" x="1831.5" y="-18" font-family="Helvetica,sans-Serif" font-size="10.00">src/app/seamly2d/dialogs</text>
<text text-anchor="middle" x="1894" y="-7" font-family="Helvetica,sans-Serif" font-size="10.00">/shortcuts_dialog.cpp</text>
</a>
</g>
</g>
<!-- Node4&#45;&gt;Node22 -->
<g id="edge21" class="edge">
<title>Node4&#45;&gt;Node22</title>
<path fill="none" stroke="#63b8ff" d="M2069.72,-63.25C2031.27,-52.91 1982.51,-39.8 1946.11,-30.01"/>
<polygon fill="#63b8ff" stroke="#63b8ff" points="2069.2,-66.74 2079.77,-65.95 2071.02,-59.98 2069.2,-66.74"/>
</g>
<!-- Node23 -->
<g id="node23" class="node">
<title>Node23</title>
<g id="a_node23"><a xlink:href="../../d2/df4/show__info__dialog_8cpp.html" target="_top" xlink:title=" ">
<polygon fill="white" stroke="#666666" points="2123.5,-30 1982.5,-30 1982.5,0 2123.5,0 2123.5,-30"/>
<text text-anchor="start" x="1990.5" y="-18" font-family="Helvetica,sans-Serif" font-size="10.00">src/app/seamly2d/dialogs</text>
<text text-anchor="middle" x="2053" y="-7" font-family="Helvetica,sans-Serif" font-size="10.00">/show_info_dialog.cpp</text>
</a>
</g>
</g>
<!-- Node4&#45;&gt;Node23 -->
<g id="edge22" class="edge">
<title>Node4&#45;&gt;Node23</title>
<path fill="none" stroke="#63b8ff" d="M2106.67,-59.48C2094.86,-49.91 2081.11,-38.77 2070.48,-30.16"/>
<polygon fill="#63b8ff" stroke="#63b8ff" points="2104.49,-62.22 2114.47,-65.8 2108.9,-56.78 2104.49,-62.22"/>
</g>
<!-- Node24 -->
<g id="node24" class="node">
<title>Node24</title>
<g id="a_node24"><a xlink:href="../../df/d69/welcome__dialog_8cpp.html" target="_top" xlink:title=" ">
<polygon fill="white" stroke="#666666" points="2282.5,-30 2141.5,-30 2141.5,0 2282.5,0 2282.5,-30"/>
<text text-anchor="start" x="2149.5" y="-18" font-family="Helvetica,sans-Serif" font-size="10.00">src/app/seamly2d/dialogs</text>
<text text-anchor="middle" x="2212" y="-7" font-family="Helvetica,sans-Serif" font-size="10.00">/welcome_dialog.cpp</text>
</a>
</g>
</g>
<!-- Node4&#45;&gt;Node24 -->
<g id="edge23" class="edge">
<title>Node4&#45;&gt;Node24</title>
<path fill="none" stroke="#63b8ff" d="M2157.65,-59.48C2169.61,-49.91 2183.53,-38.77 2194.3,-30.16"/>
<polygon fill="#63b8ff" stroke="#63b8ff" points="2155.38,-56.82 2149.75,-65.8 2159.75,-62.28 2155.38,-56.82"/>
</g>
<!-- Node25 -->
<g id="node25" class="node">
<title>Node25</title>
<g id="a_node25"><a xlink:href="../../dc/d14/app_2seamly2d_2main_8cpp.html" target="_top" xlink:title=" ">
<polygon fill="white" stroke="#666666" points="674.5,-24.5 523.5,-24.5 523.5,-5.5 674.5,-5.5 674.5,-24.5"/>
<text text-anchor="middle" x="599" y="-12.5" font-family="Helvetica,sans-Serif" font-size="10.00">src/app/seamly2d/main.cpp</text>
</a>
</g>
</g>
<!-- Node4&#45;&gt;Node25 -->
<g id="edge24" class="edge">
<title>Node4&#45;&gt;Node25</title>
<path fill="none" stroke="#63b8ff" d="M2058.08,-78.73C1802.04,-74.12 953.97,-57.14 683,-30 670.2,-28.72 656.4,-26.69 643.76,-24.57"/>
<polygon fill="#63b8ff" stroke="#63b8ff" points="2058.32,-82.23 2068.38,-78.91 2058.45,-75.23 2058.32,-82.23"/>
</g>
<!-- Node26 -->
<g id="node26" class="node">
<title>Node26</title>
<g id="a_node26"><a xlink:href="../../d8/dd9/mainwindow_8cpp.html" target="_top" xlink:title=" ">
<polygon fill="white" stroke="#666666" points="360,-24.5 172,-24.5 172,-5.5 360,-5.5 360,-24.5"/>
<text text-anchor="middle" x="266" y="-12.5" font-family="Helvetica,sans-Serif" font-size="10.00">src/app/seamly2d/mainwindow.cpp</text>
</a>
</g>
</g>
<!-- Node4&#45;&gt;Node26 -->
<g id="edge25" class="edge">
<title>Node4&#45;&gt;Node26</title>
<path fill="none" stroke="#63b8ff" d="M2057.74,-78.95C1766.92,-74.68 704.93,-57.51 369,-30 353.26,-28.71 336.25,-26.67 320.67,-24.54"/>
<polygon fill="#63b8ff" stroke="#63b8ff" points="2058.12,-82.46 2068.17,-79.1 2058.22,-75.46 2058.12,-82.46"/>
</g>
<!-- Node4&#45;&gt;Node27 -->
<g id="edge26" class="edge">
<title>Node4&#45;&gt;Node27</title>
<path fill="none" stroke="#63b8ff" d="M2205.98,-79.32C2546.38,-76.06 3964.28,-60.84 4407,-30 4425.26,-28.73 4445.03,-26.68 4463.11,-24.53"/>
<polygon fill="#63b8ff" stroke="#63b8ff" points="2205.71,-75.82 2195.75,-79.42 2205.78,-82.82 2205.71,-75.82"/>
</g>
<!-- Node28 -->
<g id="node28" class="node">
<title>Node28</title>
<g id="a_node28"><a xlink:href="../../d3/d49/vpattern_8cpp.html" target="_top" xlink:title=" ">
<polygon fill="white" stroke="#666666" points="2425.5,-30 2300.5,-30 2300.5,0 2425.5,0 2425.5,-30"/>
<text text-anchor="start" x="2308.5" y="-18" font-family="Helvetica,sans-Serif" font-size="10.00">src/app/seamly2d/xml</text>
<text text-anchor="middle" x="2363" y="-7" font-family="Helvetica,sans-Serif" font-size="10.00">/vpattern.cpp</text>
</a>
</g>
</g>
<!-- Node4&#45;&gt;Node28 -->
<g id="edge27" class="edge">
<title>Node4&#45;&gt;Node28</title>
<path fill="none" stroke="#63b8ff" d="M2192.44,-63.25C2229.76,-52.91 2277.1,-39.8 2312.42,-30.01"/>
<polygon fill="#63b8ff" stroke="#63b8ff" points="2191.4,-59.91 2182.69,-65.95 2193.27,-66.66 2191.4,-59.91"/>
</g>
<!-- Node29 -->
<g id="node29" class="node">
<title>Node29</title>
<g id="a_node29"><a xlink:href="../../d9/da3/image__tool_8cpp.html" target="_top" xlink:title=" ">
<polygon fill="white" stroke="#666666" points="2560.5,-30 2443.5,-30 2443.5,0 2560.5,0 2560.5,-30"/>
<text text-anchor="start" x="2451.5" y="-18" font-family="Helvetica,sans-Serif" font-size="10.00">src/libs/tools/images</text>
<text text-anchor="middle" x="2502" y="-7" font-family="Helvetica,sans-Serif" font-size="10.00">/image_tool.cpp</text>
</a>
</g>
</g>
<!-- Node4&#45;&gt;Node29 -->
<g id="edge28" class="edge">
<title>Node4&#45;&gt;Node29</title>
<path fill="none" stroke="#63b8ff" d="M2205.71,-68.62C2266.95,-58.97 2356.29,-44.43 2434,-30 2437.08,-29.43 2440.24,-28.83 2443.42,-28.21"/>
<polygon fill="#63b8ff" stroke="#63b8ff" points="2205.09,-65.17 2195.76,-70.18 2206.18,-72.09 2205.09,-65.17"/>
</g>
<!-- Node30&#45;&gt;Node5 -->
<g id="edge31" class="edge">
<title>Node30&#45;&gt;Node5</title>
<path fill="none" stroke="#63b8ff" d="M568.35,-67.5C542.01,-56.77 504.06,-41.3 476.63,-30.12"/>
<polygon fill="#63b8ff" stroke="#63b8ff" points="567.24,-70.83 577.83,-71.37 569.89,-64.35 567.24,-70.83"/>
</g>
<!-- Node30&#45;&gt;Node25 -->
<g id="edge33" class="edge">
<title>Node30&#45;&gt;Node25</title>
<path fill="none" stroke="#63b8ff" d="M599,-61.08C599,-49.13 599,-34.22 599,-24.91"/>
<polygon fill="#63b8ff" stroke="#63b8ff" points="595.5,-61.37 599,-71.37 602.5,-61.37 595.5,-61.37"/>
</g>
<!-- Node30&#45;&gt;Node26 -->
<g id="edge34" class="edge">
<title>Node30&#45;&gt;Node26</title>
<path fill="none" stroke="#63b8ff" d="M544.32,-69.49C478.92,-56.92 370.72,-36.13 310.3,-24.51"/>
<polygon fill="#63b8ff" stroke="#63b8ff" points="543.95,-72.98 554.44,-71.44 545.28,-66.11 543.95,-72.98"/>
</g>
<!-- Node31 -->
<g id="node31" class="node">
<title>Node31</title>
<g id="a_node31"><a xlink:href="../../d7/d13/ribbenmainwindowhost_8cpp.html" target="_top" xlink:title=" ">
<polygon fill="white" stroke="#666666" points="154,-30 0,-30 0,0 154,0 154,-30"/>
<text text-anchor="start" x="8" y="-18" font-family="Helvetica,sans-Serif" font-size="10.00">src/app/seamly2d/core</text>
<text text-anchor="middle" x="77" y="-7" font-family="Helvetica,sans-Serif" font-size="10.00">/ribbenmainwindowhost.cpp</text>
</a>
</g>
</g>
<!-- Node30&#45;&gt;Node31 -->
<g id="edge32" class="edge">
<title>Node30&#45;&gt;Node31</title>
<path fill="none" stroke="#63b8ff" d="M531.63,-70.05C521.38,-68.63 510.91,-67.24 501,-66 351.09,-47.31 312.72,-50.14 163,-30 160.15,-29.62 157.25,-29.21 154.33,-28.79"/>
<polygon fill="#63b8ff" stroke="#63b8ff" points="531.4,-73.55 541.78,-71.48 532.37,-66.62 531.4,-73.55"/>
</g>
</g>
</svg>
        <g id="navigator" transform="translate(0 0)" fill="#404254">
                <rect fill="#f2f5e9" fill-opacity="0.5" stroke="#606060" stroke-width=".5" x="0" y="0" width="60" height="60"/>
                <use id="zoomplus" xlink:href="#zoomPlus" x="17" y="9" onmousedown="handleZoom(evt,'in')"/>
                <use id="zoomminus" xlink:href="#zoomMin" x="42" y="9" onmousedown="handleZoom(evt,'out')"/>
                <use id="reset" xlink:href="#resetDef" x="30" y="36" onmousedown="handleReset()"/>
                <g id="arrowUp" xlink:href="#dirArrow" transform="translate(30 24)" onmousedown="handlePan(0,-1)">
                  <use xlink:href="#rim" fill="#404040">
                        <set attributeName="fill" to="#808080" begin="arrowUp.mouseover" end="arrowUp.mouseout"/>
                  </use>
                  <path fill="none" stroke="white" stroke-width="1.5" d="M0,-3.0v7 M-2.5,-0.5L0,-3.0L2.5,-0.5"/>
                </g>
                <g id="arrowRight" xlink:href="#dirArrow" transform="rotate(90) translate(36 -43)" onmousedown="handlePan(1,0)">
                  <use xlink:href="#rim" fill="#404040">
                        <set attributeName="fill" to="#808080" begin="arrowRight.mouseover" end="arrowRight.mouseout"/>
                  </use>
                  <path fill="none" stroke="white" stroke-width="1.5" d="M0,-3.0v7 M-2.5,-0.5L0,-3.0L2.5,-0.5"/>
                </g>
                <g id="arrowDown" xlink:href="#dirArrow" transform="rotate(180) translate(-30 -48)" onmousedown="handlePan(0,1)">
                  <use xlink:href="#rim" fill="#404040">
                        <set attributeName="fill" to="#808080" begin="arrowDown.mouseover" end="arrowDown.mouseout"/>
                  </use>
                  <path fill="none" stroke="white" stroke-width="1.5" d="M0,-3.0v7 M-2.5,-0.5L0,-3.0L2.5,-0.5"/>
                </g>
                <g id="arrowLeft" xlink:href="#dirArrow" transform="rotate(270) translate(-36 17)" onmousedown="handlePan(-1,0)">
                  <use xlink:href="#rim" fill="#404040">
                        <set attributeName="fill" to="#808080" begin="arrowLeft.mouseover" end="arrowLeft.mouseout"/>
                  </use>
                  <path fill="none" stroke="white" stroke-width="1.5" d="M0,-3.0v7 M-2.5,-0.5L0,-3.0L2.5,-0.5"/>
                </g>
        </g>
        <svg viewBox="0 0 15 15" width="100%" height="30px" preserveAspectRatio="xMaxYMin meet">
         <g id="arrow_out" transform="scale(0.3 0.3)">
          <a xlink:href="layoutsettings__dialog_8h__dep__incl_org.svg" target="_base">
           <rect id="button" ry="5" rx="5" y="6" x="6" height="38" width="38"
                fill="#f2f5e9" fill-opacity="0.5" stroke="#606060" stroke-width="1.0"/>
           <path id="arrow"
             d="M 11.500037,31.436501 C 11.940474,20.09759 22.043105,11.32322 32.158766,21.979434 L 37.068811,17.246167 C 37.068811,17.246167 37.088388,32 37.088388,32 L 22.160133,31.978069 C 22.160133,31.978069 26.997745,27.140456 26.997745,27.140456 C 18.528582,18.264221 13.291696,25.230495 11.500037,31.436501 z"
             style="fill:#404040;"/>
          </a>
         </g>
        </svg>
</svg>
