<?xml version="1.0" encoding="UTF-8" standalone="no"?>
<!DOCTYPE svg PUBLIC "-//W3C//DTD SVG 1.1//EN"
 "http://www.w3.org/Graphics/SVG/1.1/DTD/svg11.dtd">
<!-- Generated by graphviz version 2.43.0 (0)
 -->
<!-- Title: src/libs/ribben/ribbensettings.cpp Pages: 1 -->
<svg width="336pt" height="137pt"
 viewBox="0.00 0.00 335.50 137.00" xmlns="http://www.w3.org/2000/svg" xmlns:xlink="http://www.w3.org/1999/xlink">
<g id="graph0" class="graph" transform="scale(1 1) rotate(0) translate(4 133)">
<title>src/libs/ribben/ribbensettings.cpp</title>
<!-- Node1 -->
<g id="node1" class="node">
<title>Node1</title>
<g id="a_node1"><a xlink:title=" ">
<polygon fill="#999999" stroke="#666666" points="277.5,-129 99.5,-129 99.5,-110 277.5,-110 277.5,-129"/>
<text text-anchor="middle" x="188.5" y="-117" font-family="Helvetica,sans-Serif" font-size="10.00">src/libs/ribben/ribbensettings.cpp</text>
</a>
</g>
</g>
<!-- Node2 -->
<g id="node2" class="node">
<title>Node2</title>
<g id="a_node2"><a xlink:href="../../dc/d53/ribbensettings_8h.html" target="_top" xlink:title=" ">
<polygon fill="white" stroke="#666666" points="114,-74 19,-74 19,-55 114,-55 114,-74"/>
<text text-anchor="middle" x="66.5" y="-62" font-family="Helvetica,sans-Serif" font-size="10.00">ribbensettings.h</text>
</a>
</g>
</g>
<!-- Node1&#45;&gt;Node2 -->
<g id="edge1" class="edge">
<title>Node1&#45;&gt;Node2</title>
<path fill="none" stroke="#63b8ff" d="M168.9,-109.98C149.18,-101.42 118.55,-88.11 95.92,-78.28"/>
<polygon fill="#63b8ff" stroke="#63b8ff" points="97.02,-74.94 86.46,-74.17 94.24,-81.37 97.02,-74.94"/>
</g>
<!-- Node5 -->
<g id="node5" class="node">
<title>Node5</title>
<g id="a_node5"><a xlink:title=" ">
<polygon fill="#e0e0e0" stroke="#999999" points="245,-74 132,-74 132,-55 245,-55 245,-74"/>
<text text-anchor="middle" x="188.5" y="-62" font-family="Helvetica,sans-Serif" font-size="10.00">QRandomGenerator</text>
</a>
</g>
</g>
<!-- Node1&#45;&gt;Node5 -->
<g id="edge4" class="edge">
<title>Node1&#45;&gt;Node5</title>
<path fill="none" stroke="#63b8ff" d="M188.5,-109.75C188.5,-102.8 188.5,-92.85 188.5,-84.13"/>
<polygon fill="#63b8ff" stroke="#63b8ff" points="192,-84.09 188.5,-74.09 185,-84.09 192,-84.09"/>
</g>
<!-- Node6 -->
<g id="node6" class="node">
<title>Node6</title>
<g id="a_node6"><a xlink:title=" ">
<polygon fill="#e0e0e0" stroke="#999999" points="327.5,-74 263.5,-74 263.5,-55 327.5,-55 327.5,-74"/>
<text text-anchor="middle" x="295.5" y="-62" font-family="Helvetica,sans-Serif" font-size="10.00">QSettings</text>
</a>
</g>
</g>
<!-- Node1&#45;&gt;Node6 -->
<g id="edge5" class="edge">
<title>Node1&#45;&gt;Node6</title>
<path fill="none" stroke="#63b8ff" d="M205.69,-109.98C222.75,-101.54 249.13,-88.47 268.9,-78.68"/>
<polygon fill="#63b8ff" stroke="#63b8ff" points="270.59,-81.75 278,-74.17 267.48,-75.47 270.59,-81.75"/>
</g>
<!-- Node3 -->
<g id="node3" class="node">
<title>Node3</title>
<g id="a_node3"><a xlink:title=" ">
<polygon fill="#e0e0e0" stroke="#999999" points="53,-19 0,-19 0,0 53,0 53,-19"/>
<text text-anchor="middle" x="26.5" y="-7" font-family="Helvetica,sans-Serif" font-size="10.00">QString</text>
</a>
</g>
</g>
<!-- Node2&#45;&gt;Node3 -->
<g id="edge2" class="edge">
<title>Node2&#45;&gt;Node3</title>
<path fill="none" stroke="#63b8ff" d="M59.89,-54.75C54.24,-47.26 45.96,-36.28 39.05,-27.13"/>
<polygon fill="#63b8ff" stroke="#63b8ff" points="41.8,-24.96 32.98,-19.09 36.21,-29.18 41.8,-24.96"/>
</g>
<!-- Node4 -->
<g id="node4" class="node">
<title>Node4</title>
<g id="a_node4"><a xlink:title=" ">
<polygon fill="#e0e0e0" stroke="#999999" points="141.5,-19 71.5,-19 71.5,0 141.5,0 141.5,-19"/>
<text text-anchor="middle" x="106.5" y="-7" font-family="Helvetica,sans-Serif" font-size="10.00">QStringList</text>
</a>
</g>
</g>
<!-- Node2&#45;&gt;Node4 -->
<g id="edge3" class="edge">
<title>Node2&#45;&gt;Node4</title>
<path fill="none" stroke="#63b8ff" d="M73.11,-54.75C78.76,-47.26 87.04,-36.28 93.95,-27.13"/>
<polygon fill="#63b8ff" stroke="#63b8ff" points="96.79,-29.18 100.02,-19.09 91.2,-24.96 96.79,-29.18"/>
</g>
</g>
</svg>
