<?xml version="1.0" encoding="UTF-8" standalone="no"?>
<!DOCTYPE svg PUBLIC "-//W3C//DTD SVG 1.1//EN"
 "http://www.w3.org/Graphics/SVG/1.1/DTD/svg11.dtd">
<!-- Generated by graphviz version 2.43.0 (0)
 -->
<!-- Title: RibbenServer Pages: 1 -->
<svg width="444pt" height="518pt"
 viewBox="0.00 0.00 444.00 518.00" xmlns="http://www.w3.org/2000/svg" xmlns:xlink="http://www.w3.org/1999/xlink">
<g id="graph0" class="graph" transform="scale(1 1) rotate(0) translate(4 514)">
<title>RibbenServer</title>
<!-- Node1 -->
<g id="node1" class="node">
<title>Node1</title>
<g id="a_node1"><a xlink:title=" ">
<polygon fill="#999999" stroke="#666666" points="79,-0.5 79,-167.5 214,-167.5 214,-0.5 79,-0.5"/>
<text text-anchor="middle" x="146.5" y="-155.5" font-family="Helvetica,sans-Serif" font-size="10.00">RibbenServer</text>
<polyline fill="none" stroke="#666666" points="79,-148.5 214,-148.5 "/>
<text text-anchor="start" x="87" y="-136.5" font-family="Helvetica,sans-Serif" font-size="10.00">&#45; m_ipFilter</text>
<text text-anchor="start" x="87" y="-125.5" font-family="Helvetica,sans-Serif" font-size="10.00">&#45; m_token</text>
<polyline fill="none" stroke="#666666" points="79,-118.5 214,-118.5 "/>
<text text-anchor="start" x="87" y="-106.5" font-family="Helvetica,sans-Serif" font-size="10.00">+ RibbenServer()</text>
<text text-anchor="start" x="87" y="-95.5" font-family="Helvetica,sans-Serif" font-size="10.00">+ ~RibbenServer()</text>
<text text-anchor="start" x="87" y="-84.5" font-family="Helvetica,sans-Serif" font-size="10.00">+ start()</text>
<text text-anchor="start" x="87" y="-73.5" font-family="Helvetica,sans-Serif" font-size="10.00">+ stop()</text>
<text text-anchor="start" x="87" y="-62.5" font-family="Helvetica,sans-Serif" font-size="10.00"># incomingConnection()</text>
<text text-anchor="start" x="87" y="-51.5" font-family="Helvetica,sans-Serif" font-size="10.00">&#45; handleLine()</text>
<text text-anchor="start" x="87" y="-40.5" font-family="Helvetica,sans-Serif" font-size="10.00">&#45; sendResponse()</text>
<text text-anchor="start" x="87" y="-29.5" font-family="Helvetica,sans-Serif" font-size="10.00">&#45; sendParseError()</text>
<text text-anchor="start" x="87" y="-18.5" font-family="Helvetica,sans-Serif" font-size="10.00">&#45; onReadyRead()</text>
<text text-anchor="start" x="87" y="-7.5" font-family="Helvetica,sans-Serif" font-size="10.00">&#45; onDisconnected()</text>
</a>
</g>
</g>
<!-- Node2 -->
<g id="node2" class="node">
<title>Node2</title>
<g id="a_node2"><a xlink:title=" ">
<polygon fill="white" stroke="#666666" points="0,-226.5 0,-283.5 71,-283.5 71,-226.5 0,-226.5"/>
<text text-anchor="middle" x="35.5" y="-271.5" font-family="Helvetica,sans-Serif" font-size="10.00">QTcpServer</text>
<polyline fill="none" stroke="#666666" points="0,-264.5 71,-264.5 "/>
<text text-anchor="middle" x="35.5" y="-252.5" font-family="Helvetica,sans-Serif" font-size="10.00"> </text>
<polyline fill="none" stroke="#666666" points="0,-245.5 71,-245.5 "/>
<text text-anchor="middle" x="35.5" y="-233.5" font-family="Helvetica,sans-Serif" font-size="10.00"> </text>
</a>
</g>
</g>
<!-- Node2&#45;&gt;Node1 -->
<g id="edge1" class="edge">
<title>Node2&#45;&gt;Node1</title>
<path fill="none" stroke="#63b8ff" d="M59.07,-218.11C68.82,-203.27 80.55,-185.41 92.21,-167.65"/>
<polygon fill="none" stroke="#63b8ff" points="56.15,-216.19 53.58,-226.47 62,-220.03 56.15,-216.19"/>
</g>
<!-- Node3 -->
<g id="node3" class="node">
<title>Node3</title>
<g id="a_node3"><a xlink:href="../../d3/da8/classRibbenHost.html" target="_top" xlink:title="RibbenHost is what a live JSON&#45;RPC request is actually dispatched against: a running Seamly2D window ...">
<polygon fill="white" stroke="#666666" points="64,-342.5 64,-509.5 183,-509.5 183,-342.5 64,-342.5"/>
<text text-anchor="middle" x="123.5" y="-497.5" font-family="Helvetica,sans-Serif" font-size="10.00">RibbenHost</text>
<polyline fill="none" stroke="#666666" points="64,-490.5 183,-490.5 "/>
<text text-anchor="middle" x="123.5" y="-478.5" font-family="Helvetica,sans-Serif" font-size="10.00"> </text>
<polyline fill="none" stroke="#666666" points="64,-471.5 183,-471.5 "/>
<text text-anchor="start" x="72" y="-459.5" font-family="Helvetica,sans-Serif" font-size="10.00">+ ~RibbenHost()</text>
<text text-anchor="start" x="72" y="-448.5" font-family="Helvetica,sans-Serif" font-size="10.00">+ ping()</text>
<text text-anchor="start" x="72" y="-437.5" font-family="Helvetica,sans-Serif" font-size="10.00">+ getStatus()</text>
<text text-anchor="start" x="72" y="-426.5" font-family="Helvetica,sans-Serif" font-size="10.00">+ readPattern()</text>
<text text-anchor="start" x="72" y="-415.5" font-family="Helvetica,sans-Serif" font-size="10.00">+ listIncrements()</text>
<text text-anchor="start" x="72" y="-404.5" font-family="Helvetica,sans-Serif" font-size="10.00">+ updateIncrement()</text>
<text text-anchor="start" x="72" y="-393.5" font-family="Helvetica,sans-Serif" font-size="10.00">+ setPatternNotes()</text>
<text text-anchor="start" x="72" y="-382.5" font-family="Helvetica,sans-Serif" font-size="10.00">+ listPoints()</text>
<text text-anchor="start" x="72" y="-371.5" font-family="Helvetica,sans-Serif" font-size="10.00">+ addPointSingle()</text>
<text text-anchor="start" x="72" y="-360.5" font-family="Helvetica,sans-Serif" font-size="10.00">+ addPointEndLine()</text>
<text text-anchor="start" x="72" y="-349.5" font-family="Helvetica,sans-Serif" font-size="10.00">and 6 more...</text>
</a>
</g>
</g>
<!-- Node3&#45;&gt;Node1 -->
<g id="edge2" class="edge">
<title>Node3&#45;&gt;Node1</title>
<path fill="none" stroke="#404040" d="M115.18,-342.5C112.69,-303.7 111.73,-256.86 116.5,-215 117.82,-203.44 119.77,-191.4 122.07,-179.53"/>
<polygon fill="none" stroke="#404040" points="122.07,-179.49 119.35,-172.82 124.46,-167.73 127.19,-174.41 122.07,-179.49"/>
<text text-anchor="middle" x="138" y="-252.5" font-family="Helvetica,sans-Serif" font-size="10.00"> &#45;m_host</text>
</g>
<!-- Node4 -->
<g id="node4" class="node">
<title>Node4</title>
<g id="a_node4"><a xlink:href="../../d3/d4d/classRibbenDispatcher.html" target="_top" xlink:title=" ">
<polygon fill="white" stroke="#666666" points="168.5,-215.5 168.5,-294.5 290.5,-294.5 290.5,-215.5 168.5,-215.5"/>
<text text-anchor="middle" x="229.5" y="-282.5" font-family="Helvetica,sans-Serif" font-size="10.00">RibbenDispatcher</text>
<polyline fill="none" stroke="#666666" points="168.5,-275.5 290.5,-275.5 "/>
<text text-anchor="middle" x="229.5" y="-263.5" font-family="Helvetica,sans-Serif" font-size="10.00"> </text>
<polyline fill="none" stroke="#666666" points="168.5,-256.5 290.5,-256.5 "/>
<text text-anchor="start" x="176.5" y="-244.5" font-family="Helvetica,sans-Serif" font-size="10.00">+ RibbenDispatcher()</text>
<text text-anchor="start" x="176.5" y="-233.5" font-family="Helvetica,sans-Serif" font-size="10.00">+ dispatch()</text>
<text text-anchor="start" x="176.5" y="-222.5" font-family="Helvetica,sans-Serif" font-size="10.00">&#45; invoke()</text>
</a>
</g>
</g>
<!-- Node3&#45;&gt;Node4 -->
<g id="edge4" class="edge">
<title>Node3&#45;&gt;Node4</title>
<path fill="none" stroke="#404040" d="M175.26,-342.48C183.31,-329.65 191.39,-316.76 198.77,-304.99"/>
<polygon fill="none" stroke="#404040" points="198.95,-304.7 198.75,-297.49 205.33,-294.53 205.53,-301.74 198.95,-304.7"/>
<text text-anchor="middle" x="214" y="-316" font-family="Helvetica,sans-Serif" font-size="10.00"> &#45;m_host</text>
</g>
<!-- Node4&#45;&gt;Node1 -->
<g id="edge3" class="edge">
<title>Node4&#45;&gt;Node1</title>
<path fill="none" stroke="#404040" d="M210.46,-215.23C205,-204.11 198.8,-191.49 192.46,-178.57"/>
<polygon fill="none" stroke="#404040" points="192.4,-178.46 186.16,-174.84 187.11,-167.69 193.35,-171.31 192.4,-178.46"/>
<text text-anchor="middle" x="237" y="-189" font-family="Helvetica,sans-Serif" font-size="10.00"> &#45;m_dispatcher</text>
</g>
<!-- Node5 -->
<g id="node5" class="node">
<title>Node5</title>
<g id="a_node5"><a xlink:href="../../da/da1/classQHash.html" target="_top" xlink:title=" ">
<polygon fill="white" stroke="#666666" points="309,-221 309,-289 436,-289 436,-221 309,-221"/>
<text text-anchor="start" x="317" y="-277" font-family="Helvetica,sans-Serif" font-size="10.00">QHash&lt; QTcpSocket *,</text>
<text text-anchor="middle" x="372.5" y="-266" font-family="Helvetica,sans-Serif" font-size="10.00"> QByteArray &gt;</text>
<polyline fill="none" stroke="#666666" points="309,-259 436,-259 "/>
<text text-anchor="middle" x="372.5" y="-247" font-family="Helvetica,sans-Serif" font-size="10.00"> </text>
<polyline fill="none" stroke="#666666" points="309,-240 436,-240 "/>
<text text-anchor="middle" x="372.5" y="-228" font-family="Helvetica,sans-Serif" font-size="10.00"> </text>
</a>
</g>
</g>
<!-- Node5&#45;&gt;Node1 -->
<g id="edge5" class="edge">
<title>Node5&#45;&gt;Node1</title>
<path fill="none" stroke="#404040" d="M328.12,-220.81C298.51,-198.67 258.78,-168.96 224.03,-142.98"/>
<polygon fill="none" stroke="#404040" points="223.99,-142.94 216.79,-142.55 214.38,-135.76 221.58,-136.15 223.99,-142.94"/>
<text text-anchor="middle" x="320.5" y="-189" font-family="Helvetica,sans-Serif" font-size="10.00"> &#45;m_buffers</text>
</g>
</g>
</svg>
