<?xml version="1.0" encoding="UTF-8" standalone="no"?>
<!DOCTYPE svg PUBLIC "-//W3C//DTD SVG 1.1//EN"
 "http://www.w3.org/Graphics/SVG/1.1/DTD/svg11.dtd">
<!-- Generated by graphviz version 2.43.0 (0)
 -->
<!-- Title: src/app/seamly2d/mainwindowsnogui.h Pages: 1 -->
<svg width="684pt" height="148pt"
 viewBox="0.00 0.00 683.50 148.00" xmlns="http://www.w3.org/2000/svg" xmlns:xlink="http://www.w3.org/1999/xlink">
<g id="graph0" class="graph" transform="scale(1 1) rotate(0) translate(4 144)">
<title>src/app/seamly2d/mainwindowsnogui.h</title>
<!-- Node1 -->
<g id="node1" class="node">
<title>Node1</title>
<g id="a_node1"><a xlink:title=" ">
<polygon fill="#999999" stroke="#666666" points="520,-140 311,-140 311,-121 520,-121 520,-140"/>
<text text-anchor="middle" x="415.5" y="-128" font-family="Helvetica,sans-Serif" font-size="10.00">src/app/seamly2d/mainwindowsnogui.h</text>
</a>
</g>
</g>
<!-- Node2 -->
<g id="node2" class="node">
<title>Node2</title>
<g id="a_node2"><a xlink:href="../../d9/d53/mainwindow_8h.html" target="_top" xlink:title=" ">
<polygon fill="white" stroke="#666666" points="395.5,-85 219.5,-85 219.5,-66 395.5,-66 395.5,-85"/>
<text text-anchor="middle" x="307.5" y="-73" font-family="Helvetica,sans-Serif" font-size="10.00">src/app/seamly2d/mainwindow.h</text>
</a>
</g>
</g>
<!-- Node1&#45;&gt;Node2 -->
<g id="edge1" class="edge">
<title>Node1&#45;&gt;Node2</title>
<path fill="none" stroke="#63b8ff" d="M389.01,-116.5C369.14,-106.75 342.5,-93.68 325.17,-85.17"/>
<polygon fill="#63b8ff" stroke="#63b8ff" points="387.63,-119.72 398.15,-120.98 390.71,-113.44 387.63,-119.72"/>
</g>
<!-- Node7 -->
<g id="node7" class="node">
<title>Node7</title>
<g id="a_node7"><a xlink:href="../../d8/de8/mainwindowsnogui_8cpp.html" target="_top" xlink:title=" ">
<polygon fill="white" stroke="#666666" points="634,-85 413,-85 413,-66 634,-66 634,-85"/>
<text text-anchor="middle" x="523.5" y="-73" font-family="Helvetica,sans-Serif" font-size="10.00">src/app/seamly2d/mainwindowsnogui.cpp</text>
</a>
</g>
</g>
<!-- Node1&#45;&gt;Node7 -->
<g id="edge6" class="edge">
<title>Node1&#45;&gt;Node7</title>
<path fill="none" stroke="#63b8ff" d="M441.99,-116.5C461.86,-106.75 488.5,-93.68 505.83,-85.17"/>
<polygon fill="#63b8ff" stroke="#63b8ff" points="440.29,-113.44 432.85,-120.98 443.37,-119.72 440.29,-113.44"/>
</g>
<!-- Node3 -->
<g id="node3" class="node">
<title>Node3</title>
<g id="a_node3"><a xlink:href="../../df/d3e/application__2d_8cpp.html" target="_top" xlink:title=" ">
<polygon fill="white" stroke="#666666" points="127,-30 0,-30 0,0 127,0 127,-30"/>
<text text-anchor="start" x="8" y="-18" font-family="Helvetica,sans-Serif" font-size="10.00">src/app/seamly2d/core</text>
<text text-anchor="middle" x="63.5" y="-7" font-family="Helvetica,sans-Serif" font-size="10.00">/application_2d.cpp</text>
</a>
</g>
</g>
<!-- Node2&#45;&gt;Node3 -->
<g id="edge2" class="edge">
<title>Node2&#45;&gt;Node3</title>
<path fill="none" stroke="#63b8ff" d="M262.14,-63.62C222.64,-54.16 165.14,-40.37 122.16,-30.06"/>
<polygon fill="#63b8ff" stroke="#63b8ff" points="261.48,-67.07 272.02,-65.99 263.11,-60.26 261.48,-67.07"/>
</g>
<!-- Node4 -->
<g id="node4" class="node">
<title>Node4</title>
<g id="a_node4"><a xlink:href="../../d7/d13/ribbenmainwindowhost_8cpp.html" target="_top" xlink:title=" ">
<polygon fill="white" stroke="#666666" points="299.5,-30 145.5,-30 145.5,0 299.5,0 299.5,-30"/>
<text text-anchor="start" x="153.5" y="-18" font-family="Helvetica,sans-Serif" font-size="10.00">src/app/seamly2d/core</text>
<text text-anchor="middle" x="222.5" y="-7" font-family="Helvetica,sans-Serif" font-size="10.00">/ribbenmainwindowhost.cpp</text>
</a>
</g>
</g>
<!-- Node2&#45;&gt;Node4 -->
<g id="edge3" class="edge">
<title>Node2&#45;&gt;Node4</title>
<path fill="none" stroke="#63b8ff" d="M286.48,-60.03C273.21,-50.9 256.17,-39.17 243.01,-30.11"/>
<polygon fill="#63b8ff" stroke="#63b8ff" points="284.74,-63.08 294.96,-65.87 288.7,-57.32 284.74,-63.08"/>
</g>
<!-- Node5 -->
<g id="node5" class="node">
<title>Node5</title>
<g id="a_node5"><a xlink:href="../../dc/d14/app_2seamly2d_2main_8cpp.html" target="_top" xlink:title=" ">
<polygon fill="white" stroke="#666666" points="469,-24.5 318,-24.5 318,-5.5 469,-5.5 469,-24.5"/>
<text text-anchor="middle" x="393.5" y="-12.5" font-family="Helvetica,sans-Serif" font-size="10.00">src/app/seamly2d/main.cpp</text>
</a>
</g>
</g>
<!-- Node2&#45;&gt;Node5 -->
<g id="edge4" class="edge">
<title>Node2&#45;&gt;Node5</title>
<path fill="none" stroke="#63b8ff" d="M328.58,-60.16C344.92,-49.05 367.02,-34.01 380.76,-24.67"/>
<polygon fill="#63b8ff" stroke="#63b8ff" points="326.49,-57.35 320.19,-65.87 330.43,-63.14 326.49,-57.35"/>
</g>
<!-- Node6 -->
<g id="node6" class="node">
<title>Node6</title>
<g id="a_node6"><a xlink:href="../../d8/dd9/mainwindow_8cpp.html" target="_top" xlink:title=" ">
<polygon fill="white" stroke="#666666" points="675.5,-24.5 487.5,-24.5 487.5,-5.5 675.5,-5.5 675.5,-24.5"/>
<text text-anchor="middle" x="581.5" y="-12.5" font-family="Helvetica,sans-Serif" font-size="10.00">src/app/seamly2d/mainwindow.cpp</text>
</a>
</g>
</g>
<!-- Node2&#45;&gt;Node6 -->
<g id="edge5" class="edge">
<title>Node2&#45;&gt;Node6</title>
<path fill="none" stroke="#63b8ff" d="M357.18,-63.89C410.09,-52.6 492.78,-34.94 541.61,-24.52"/>
<polygon fill="#63b8ff" stroke="#63b8ff" points="356.39,-60.48 347.34,-65.99 357.85,-67.33 356.39,-60.48"/>
</g>
</g>
</svg>
